<svg xmlns="http://www.w3.org/2000/svg" width="38" height="38" viewBox="0 0 38 38"><defs><style>.a{fill:#fff;}.b{fill:#e00;}</style></defs><path d="M28.0144.9712H9.9856A9.0144,9.0144,0,0,0,.9712,9.9856V28.0144a9.0144,9.0144,0,0,0,9.0144,9.0144H28.0144a9.0144,9.0144,0,0,0,9.0144-9.0144V9.9856A9.0144,9.0144,0,0,0,28.0144.9712Z"/><path class="a" d="M27.9365,25.1621l-4.343-10.4169a.6006.6006,0,0,0,.0315-.1558V10.625H24.5a.625.625,0,0,0,0-1.25H23a.6253.6253,0,0,0-.625.625c0,.0107.0055.02.006.03s-.006.0194-.006.03v4.5293a.6086.6086,0,0,0,.0355.1756.6148.6148,0,0,0,.0124.4225l2.1632,5.1875H20.4785a.625.625,0,1,0,0,1.25h4.6289L26.78,25.6367a1.3089,1.3089,0,0,1,.0947.4883,1.2511,1.2511,0,0,1-1.25,1.25h-9.75a1.2511,1.2511,0,0,1-1.25-1.25,1.2919,1.2919,0,0,1,.0928-.4824l1.0166-2.44a.6251.6251,0,0,0-1.1543-.48L13.5615,25.168a2.5345,2.5345,0,0,0-.1865.957,2.5023,2.5023,0,0,0,2.5,2.5h9.75a2.5023,2.5023,0,0,0,2.5-2.5A2.55,2.55,0,0,0,27.9365,25.1621Z"/><path class="a" d="M17,10.625h.875v4.3218a.625.625,0,0,0,1.25,0V10.06c0-.0107-.0055-.02-.006-.03s.006-.0193.006-.03a.6253.6253,0,0,0-.625-.625H17a.625.625,0,0,0,0,1.25Z"/><path class="b" d="M14.6924,15.5718A2.4214,2.4214,0,1,1,17.1143,13.15,2.4239,2.4239,0,0,1,14.6924,15.5718Zm0-3.5928A1.1714,1.1714,0,1,0,15.8643,13.15,1.1725,1.1725,0,0,0,14.6924,11.979Z"/><path class="b" d="M10.8965,15.5718a.6253.6253,0,0,1-.625-.625V11.354a.625.625,0,0,1,1.25,0v3.5928A.6253.6253,0,0,1,10.8965,15.5718Z"/><path class="b" d="M12.1426,21.625a2.4214,2.4214,0,1,1,2.4219-2.4214A2.4239,2.4239,0,0,1,12.1426,21.625Zm0-3.5928a1.1714,1.1714,0,1,0,1.1719,1.1714A1.1725,1.1725,0,0,0,12.1426,18.0322Z"/><path class="b" d="M18.4893,21.625a.6252.6252,0,0,1-.625-.625V17.4072a.625.625,0,0,1,1.25,0V21A.6253.6253,0,0,1,18.4893,21.625Z"/><path class="b" d="M16.2168,21.625a.6253.6253,0,0,1-.625-.625V17.4072a.625.625,0,1,1,1.25,0V21A.6253.6253,0,0,1,16.2168,21.625Z"/></svg>